<mxfile host="app.diagrams.net" agent="Mozilla/5.0 (Windows NT 10.0; Win64; x64) AppleWebKit/537.36 (KHTML, like Gecko) Chrome/134.0.0.0 Safari/537.36" version="26.1.1">
  <diagram name="Page-1" id="2YBvvXClWsGukQMizWep">
    <mxGraphModel dx="1674" dy="2938" grid="1" gridSize="10" guides="1" tooltips="1" connect="1" arrows="1" fold="1" page="1" pageScale="1" pageWidth="850" pageHeight="1100" math="0" shadow="0">
      <root>
        <mxCell id="0" />
        <mxCell id="1" parent="0" />
        <mxCell id="aM9ryv3xv72pqoxQDRHE-1" value=":Object" style="shape=umlLifeline;perimeter=lifelinePerimeter;whiteSpace=wrap;html=1;container=0;dropTarget=0;collapsible=0;recursiveResize=0;outlineConnect=0;portConstraint=eastwest;newEdgeStyle={&quot;edgeStyle&quot;:&quot;elbowEdgeStyle&quot;,&quot;elbow&quot;:&quot;vertical&quot;,&quot;curved&quot;:0,&quot;rounded&quot;:0};" parent="1" vertex="1">
          <mxGeometry x="80" y="-1290" width="100" height="300" as="geometry" />
        </mxCell>
        <mxCell id="aM9ryv3xv72pqoxQDRHE-2" value="" style="html=1;points=[];perimeter=orthogonalPerimeter;outlineConnect=0;targetShapes=umlLifeline;portConstraint=eastwest;newEdgeStyle={&quot;edgeStyle&quot;:&quot;elbowEdgeStyle&quot;,&quot;elbow&quot;:&quot;vertical&quot;,&quot;curved&quot;:0,&quot;rounded&quot;:0};" parent="aM9ryv3xv72pqoxQDRHE-1" vertex="1">
          <mxGeometry x="45" y="70" width="10" height="190" as="geometry" />
        </mxCell>
        <mxCell id="aM9ryv3xv72pqoxQDRHE-3" value="dispatch" style="html=1;verticalAlign=bottom;startArrow=oval;endArrow=block;startSize=8;edgeStyle=elbowEdgeStyle;elbow=vertical;curved=0;rounded=0;" parent="aM9ryv3xv72pqoxQDRHE-1" target="aM9ryv3xv72pqoxQDRHE-2" edge="1">
          <mxGeometry relative="1" as="geometry">
            <mxPoint x="-15" y="70" as="sourcePoint" />
          </mxGeometry>
        </mxCell>
        <mxCell id="aM9ryv3xv72pqoxQDRHE-4" value="" style="html=1;points=[];perimeter=orthogonalPerimeter;outlineConnect=0;targetShapes=umlLifeline;portConstraint=eastwest;newEdgeStyle={&quot;edgeStyle&quot;:&quot;elbowEdgeStyle&quot;,&quot;elbow&quot;:&quot;vertical&quot;,&quot;curved&quot;:0,&quot;rounded&quot;:0};" parent="aM9ryv3xv72pqoxQDRHE-1" vertex="1">
          <mxGeometry x="50" y="120" width="10" height="80" as="geometry" />
        </mxCell>
        <mxCell id="aM9ryv3xv72pqoxQDRHE-5" value=":Object" style="shape=umlLifeline;perimeter=lifelinePerimeter;whiteSpace=wrap;html=1;container=0;dropTarget=0;collapsible=0;recursiveResize=0;outlineConnect=0;portConstraint=eastwest;newEdgeStyle={&quot;edgeStyle&quot;:&quot;elbowEdgeStyle&quot;,&quot;elbow&quot;:&quot;vertical&quot;,&quot;curved&quot;:0,&quot;rounded&quot;:0};" parent="1" vertex="1">
          <mxGeometry x="380" y="-1350" width="100" height="300" as="geometry" />
        </mxCell>
        <mxCell id="aM9ryv3xv72pqoxQDRHE-6" value="" style="html=1;points=[];perimeter=orthogonalPerimeter;outlineConnect=0;targetShapes=umlLifeline;portConstraint=eastwest;newEdgeStyle={&quot;edgeStyle&quot;:&quot;elbowEdgeStyle&quot;,&quot;elbow&quot;:&quot;vertical&quot;,&quot;curved&quot;:0,&quot;rounded&quot;:0};" parent="aM9ryv3xv72pqoxQDRHE-5" vertex="1">
          <mxGeometry x="45" y="80" width="10" height="170" as="geometry" />
        </mxCell>
        <mxCell id="aM9ryv3xv72pqoxQDRHE-7" value="dispatch" style="html=1;verticalAlign=bottom;endArrow=block;edgeStyle=elbowEdgeStyle;elbow=vertical;curved=0;rounded=0;" parent="1" source="aM9ryv3xv72pqoxQDRHE-2" target="aM9ryv3xv72pqoxQDRHE-6" edge="1">
          <mxGeometry relative="1" as="geometry">
            <mxPoint x="235" y="-1200" as="sourcePoint" />
            <Array as="points">
              <mxPoint x="220" y="-1210" />
            </Array>
          </mxGeometry>
        </mxCell>
        <mxCell id="aM9ryv3xv72pqoxQDRHE-8" value="return" style="html=1;verticalAlign=bottom;endArrow=open;dashed=1;endSize=8;edgeStyle=elbowEdgeStyle;elbow=vertical;curved=0;rounded=0;" parent="1" source="aM9ryv3xv72pqoxQDRHE-6" target="aM9ryv3xv72pqoxQDRHE-2" edge="1">
          <mxGeometry relative="1" as="geometry">
            <mxPoint x="235" y="-1125" as="targetPoint" />
            <Array as="points">
              <mxPoint x="230" y="-1050" />
            </Array>
          </mxGeometry>
        </mxCell>
        <mxCell id="aM9ryv3xv72pqoxQDRHE-9" value="callback" style="html=1;verticalAlign=bottom;endArrow=block;edgeStyle=elbowEdgeStyle;elbow=vertical;curved=0;rounded=0;" parent="1" source="aM9ryv3xv72pqoxQDRHE-6" target="aM9ryv3xv72pqoxQDRHE-4" edge="1">
          <mxGeometry x="-0.3333" y="10" relative="1" as="geometry">
            <mxPoint x="215" y="-1170" as="sourcePoint" />
            <Array as="points">
              <mxPoint x="230" y="-1170" />
            </Array>
            <mxPoint as="offset" />
          </mxGeometry>
        </mxCell>
        <mxCell id="aM9ryv3xv72pqoxQDRHE-10" value="return" style="html=1;verticalAlign=bottom;endArrow=open;dashed=1;endSize=8;edgeStyle=elbowEdgeStyle;elbow=vertical;curved=0;rounded=0;" parent="1" source="aM9ryv3xv72pqoxQDRHE-4" target="aM9ryv3xv72pqoxQDRHE-6" edge="1">
          <mxGeometry x="0.0909" y="30" relative="1" as="geometry">
            <mxPoint x="215" y="-1095" as="targetPoint" />
            <Array as="points">
              <mxPoint x="220" y="-1100" />
            </Array>
            <mxPoint as="offset" />
          </mxGeometry>
        </mxCell>
        <mxCell id="4ip0zOYONYjsPPys63c3-18" value="" style="endArrow=open;endFill=1;endSize=12;html=1;rounded=0;" edge="1" parent="1" source="4ip0zOYONYjsPPys63c3-19">
          <mxGeometry width="160" relative="1" as="geometry">
            <mxPoint x="140" y="-760" as="sourcePoint" />
            <mxPoint x="435" y="-760" as="targetPoint" />
            <Array as="points" />
          </mxGeometry>
        </mxCell>
        <mxCell id="4ip0zOYONYjsPPys63c3-19" value="" style="shape=umlLifeline;perimeter=lifelinePerimeter;whiteSpace=wrap;html=1;container=1;dropTarget=0;collapsible=0;recursiveResize=0;outlineConnect=0;portConstraint=eastwest;newEdgeStyle={&quot;curved&quot;:0,&quot;rounded&quot;:0};participant=umlActor;" vertex="1" parent="1">
          <mxGeometry x="140" y="-840" width="20" height="630" as="geometry" />
        </mxCell>
        <mxCell id="4ip0zOYONYjsPPys63c3-22" value="" style="shape=umlLifeline;perimeter=lifelinePerimeter;whiteSpace=wrap;html=1;container=1;dropTarget=0;collapsible=0;recursiveResize=0;outlineConnect=0;portConstraint=eastwest;newEdgeStyle={&quot;curved&quot;:0,&quot;rounded&quot;:0};participant=umlActor;" vertex="1" parent="1">
          <mxGeometry x="295" y="-840" width="20" height="620" as="geometry" />
        </mxCell>
        <mxCell id="4ip0zOYONYjsPPys63c3-27" value="callback" style="html=1;verticalAlign=bottom;endArrow=block;curved=0;rounded=0;entryX=1;entryY=0;entryDx=0;entryDy=5;" edge="1" parent="1">
          <mxGeometry relative="1" as="geometry">
            <mxPoint x="720" y="-1115" as="sourcePoint" />
            <mxPoint x="650" y="-1114.9999999999998" as="targetPoint" />
          </mxGeometry>
        </mxCell>
        <mxCell id="4ip0zOYONYjsPPys63c3-30" value="" style="endArrow=open;endFill=1;endSize=12;html=1;rounded=0;" edge="1" parent="1" target="4ip0zOYONYjsPPys63c3-47">
          <mxGeometry width="160" relative="1" as="geometry">
            <mxPoint x="300" y="-650" as="sourcePoint" />
            <mxPoint x="550" y="-650" as="targetPoint" />
            <Array as="points">
              <mxPoint x="150" y="-650" />
              <mxPoint x="390" y="-650" />
            </Array>
          </mxGeometry>
        </mxCell>
        <mxCell id="4ip0zOYONYjsPPys63c3-36" value="Panier" style="shape=umlLifeline;perimeter=lifelinePerimeter;whiteSpace=wrap;html=1;container=1;dropTarget=0;collapsible=0;recursiveResize=0;outlineConnect=0;portConstraint=eastwest;newEdgeStyle={&quot;curved&quot;:0,&quot;rounded&quot;:0};" vertex="1" parent="1">
          <mxGeometry x="710" y="-842" width="100" height="580" as="geometry" />
        </mxCell>
        <mxCell id="4ip0zOYONYjsPPys63c3-38" value="" style="endArrow=open;endFill=1;endSize=12;html=1;rounded=0;" edge="1" parent="1" source="4ip0zOYONYjsPPys63c3-47">
          <mxGeometry width="160" relative="1" as="geometry">
            <mxPoint x="730" y="-560" as="sourcePoint" />
            <mxPoint x="890" y="-560" as="targetPoint" />
          </mxGeometry>
        </mxCell>
        <mxCell id="4ip0zOYONYjsPPys63c3-39" value="StatFormation" style="shape=umlLifeline;perimeter=lifelinePerimeter;whiteSpace=wrap;html=1;container=1;dropTarget=0;collapsible=0;recursiveResize=0;outlineConnect=0;portConstraint=eastwest;newEdgeStyle={&quot;curved&quot;:0,&quot;rounded&quot;:0};" vertex="1" parent="1">
          <mxGeometry x="840" y="-840" width="100" height="1250" as="geometry" />
        </mxCell>
        <mxCell id="4ip0zOYONYjsPPys63c3-40" value="Chat" style="shape=umlLifeline;perimeter=lifelinePerimeter;whiteSpace=wrap;html=1;container=1;dropTarget=0;collapsible=0;recursiveResize=0;outlineConnect=0;portConstraint=eastwest;newEdgeStyle={&quot;curved&quot;:0,&quot;rounded&quot;:0};" vertex="1" parent="1">
          <mxGeometry x="1100" y="-990" width="100" height="910" as="geometry" />
        </mxCell>
        <mxCell id="4ip0zOYONYjsPPys63c3-41" value="Apprenti" style="text;html=1;align=center;verticalAlign=middle;resizable=0;points=[];autosize=1;strokeColor=none;fillColor=none;" vertex="1" parent="1">
          <mxGeometry x="120" y="-870" width="70" height="30" as="geometry" />
        </mxCell>
        <mxCell id="4ip0zOYONYjsPPys63c3-42" value="Formateur" style="text;html=1;align=center;verticalAlign=middle;resizable=0;points=[];autosize=1;strokeColor=none;fillColor=none;" vertex="1" parent="1">
          <mxGeometry x="265" y="-870" width="80" height="30" as="geometry" />
        </mxCell>
        <mxCell id="4ip0zOYONYjsPPys63c3-43" value="" style="endArrow=open;endFill=1;endSize=12;html=1;rounded=0;" edge="1" parent="1">
          <mxGeometry width="160" relative="1" as="geometry">
            <mxPoint x="150" y="-710" as="sourcePoint" />
            <mxPoint x="435" y="-710" as="targetPoint" />
            <Array as="points" />
          </mxGeometry>
        </mxCell>
        <mxCell id="4ip0zOYONYjsPPys63c3-44" value="L&#39;utilsateur se connecte en tant que apprenti" style="text;html=1;align=center;verticalAlign=middle;resizable=0;points=[];autosize=1;strokeColor=none;fillColor=none;" vertex="1" parent="1">
          <mxGeometry x="150" y="-790" width="260" height="30" as="geometry" />
        </mxCell>
        <mxCell id="4ip0zOYONYjsPPys63c3-45" value="idUtilisateur:=CreerCompte(nom,email,mot de passe)" style="text;html=1;align=center;verticalAlign=middle;resizable=0;points=[];autosize=1;strokeColor=none;fillColor=none;" vertex="1" parent="1">
          <mxGeometry x="140" y="-740" width="310" height="30" as="geometry" />
        </mxCell>
        <mxCell id="4ip0zOYONYjsPPys63c3-46" value="Compte" style="html=1;whiteSpace=wrap;" vertex="1" parent="1">
          <mxGeometry x="440" y="-730" width="110" height="50" as="geometry" />
        </mxCell>
        <mxCell id="4ip0zOYONYjsPPys63c3-47" value="Formation" style="shape=umlLifeline;perimeter=lifelinePerimeter;whiteSpace=wrap;html=1;container=1;dropTarget=0;collapsible=0;recursiveResize=0;outlineConnect=0;portConstraint=eastwest;newEdgeStyle={&quot;curved&quot;:0,&quot;rounded&quot;:0};" vertex="1" parent="1">
          <mxGeometry x="530" y="-840" width="100" height="650" as="geometry" />
        </mxCell>
        <mxCell id="4ip0zOYONYjsPPys63c3-49" value="Ajouter une formation au panier(IDutilsatuer,IDFormation)" style="text;html=1;align=center;verticalAlign=middle;resizable=0;points=[];autosize=1;strokeColor=none;fillColor=none;" vertex="1" parent="1">
          <mxGeometry x="500" y="-640" width="330" height="30" as="geometry" />
        </mxCell>
        <mxCell id="4ip0zOYONYjsPPys63c3-53" value="" style="endArrow=open;endFill=1;endSize=12;html=1;rounded=0;" edge="1" parent="1" target="4ip0zOYONYjsPPys63c3-36">
          <mxGeometry width="160" relative="1" as="geometry">
            <mxPoint x="580" y="-610" as="sourcePoint" />
            <mxPoint x="740" y="-610" as="targetPoint" />
          </mxGeometry>
        </mxCell>
        <mxCell id="4ip0zOYONYjsPPys63c3-57" value="ChoisirFormation(IDForation)" style="text;html=1;align=center;verticalAlign=middle;resizable=0;points=[];autosize=1;strokeColor=none;fillColor=none;" vertex="1" parent="1">
          <mxGeometry x="170" y="-682" width="180" height="30" as="geometry" />
        </mxCell>
        <mxCell id="4ip0zOYONYjsPPys63c3-58" value="Nbvues:=ajouterVue(IDFormation)" style="text;html=1;align=center;verticalAlign=middle;resizable=0;points=[];autosize=1;strokeColor=none;fillColor=none;" vertex="1" parent="1">
          <mxGeometry x="570" y="-592" width="210" height="30" as="geometry" />
        </mxCell>
        <mxCell id="4ip0zOYONYjsPPys63c3-59" value="" style="endArrow=open;endFill=1;endSize=12;html=1;rounded=0;" edge="1" parent="1" target="4ip0zOYONYjsPPys63c3-47">
          <mxGeometry width="160" relative="1" as="geometry">
            <mxPoint x="300" y="-480" as="sourcePoint" />
            <mxPoint x="460" y="-480" as="targetPoint" />
          </mxGeometry>
        </mxCell>
        <mxCell id="4ip0zOYONYjsPPys63c3-60" value="CreerFormation(titre,description,media)" style="text;html=1;align=center;verticalAlign=middle;resizable=0;points=[];autosize=1;strokeColor=none;fillColor=none;" vertex="1" parent="1">
          <mxGeometry x="310" y="-502" width="230" height="30" as="geometry" />
        </mxCell>
        <mxCell id="4ip0zOYONYjsPPys63c3-61" value="Formation" style="html=1;whiteSpace=wrap;" vertex="1" parent="1">
          <mxGeometry x="580" y="-512" width="110" height="50" as="geometry" />
        </mxCell>
        <mxCell id="4ip0zOYONYjsPPys63c3-62" value="" style="endArrow=open;endFill=1;endSize=12;html=1;rounded=0;" edge="1" parent="1" target="4ip0zOYONYjsPPys63c3-39">
          <mxGeometry width="160" relative="1" as="geometry">
            <mxPoint x="580" y="-410" as="sourcePoint" />
            <mxPoint x="740" y="-410" as="targetPoint" />
          </mxGeometry>
        </mxCell>
        <mxCell id="4ip0zOYONYjsPPys63c3-63" value="ajouterStat(IDFormation,nbVue=0)" style="text;html=1;align=center;verticalAlign=middle;resizable=0;points=[];autosize=1;strokeColor=none;fillColor=none;" vertex="1" parent="1">
          <mxGeometry x="545" y="-432" width="210" height="30" as="geometry" />
        </mxCell>
        <mxCell id="4ip0zOYONYjsPPys63c3-68" value="Utilisateur" style="shape=umlLifeline;perimeter=lifelinePerimeter;whiteSpace=wrap;html=1;container=1;dropTarget=0;collapsible=0;recursiveResize=0;outlineConnect=0;portConstraint=eastwest;newEdgeStyle={&quot;curved&quot;:0,&quot;rounded&quot;:0};size=20;" vertex="1" parent="1">
          <mxGeometry x="390" y="-830" width="100" height="720" as="geometry" />
        </mxCell>
        <mxCell id="4ip0zOYONYjsPPys63c3-69" value="" style="endArrow=open;endFill=1;endSize=12;html=1;rounded=0;" edge="1" parent="1" target="4ip0zOYONYjsPPys63c3-70">
          <mxGeometry width="160" relative="1" as="geometry">
            <mxPoint x="450" y="-308" as="sourcePoint" />
            <mxPoint x="1050" y="-308" as="targetPoint" />
          </mxGeometry>
        </mxCell>
        <mxCell id="4ip0zOYONYjsPPys63c3-70" value="Message" style="shape=umlLifeline;perimeter=lifelinePerimeter;whiteSpace=wrap;html=1;container=1;dropTarget=0;collapsible=0;recursiveResize=0;outlineConnect=0;portConstraint=eastwest;newEdgeStyle={&quot;curved&quot;:0,&quot;rounded&quot;:0};" vertex="1" parent="1">
          <mxGeometry x="960" y="-340" width="100" height="962" as="geometry" />
        </mxCell>
        <mxCell id="4ip0zOYONYjsPPys63c3-71" value="Creer un message(idUtilisateur,contenu)" style="text;html=1;align=center;verticalAlign=middle;resizable=0;points=[];autosize=1;strokeColor=none;fillColor=none;" vertex="1" parent="1">
          <mxGeometry x="575" y="-330" width="240" height="30" as="geometry" />
        </mxCell>
        <mxCell id="4ip0zOYONYjsPPys63c3-75" value="" style="endArrow=open;endFill=1;endSize=12;html=1;rounded=0;" edge="1" parent="1">
          <mxGeometry width="160" relative="1" as="geometry">
            <mxPoint x="1010" y="-240" as="sourcePoint" />
            <mxPoint x="1150" y="-240" as="targetPoint" />
            <Array as="points">
              <mxPoint x="1070" y="-240" />
            </Array>
          </mxGeometry>
        </mxCell>
        <mxCell id="4ip0zOYONYjsPPys63c3-76" value="Message:=stockeMessage(IDMessage,IDUtilisateur)" style="text;html=1;align=center;verticalAlign=middle;resizable=0;points=[];autosize=1;strokeColor=none;fillColor=none;" vertex="1" parent="1">
          <mxGeometry x="910" y="-272" width="300" height="30" as="geometry" />
        </mxCell>
        <mxCell id="4ip0zOYONYjsPPys63c3-77" value="NotifierDestinateur(IDMessage,IDUTilisateur)" style="html=1;verticalAlign=bottom;endArrow=open;dashed=1;endSize=8;curved=0;rounded=0;" edge="1" parent="1" source="4ip0zOYONYjsPPys63c3-40" target="4ip0zOYONYjsPPys63c3-68">
          <mxGeometry y="-10" relative="1" as="geometry">
            <mxPoint x="1130" y="-150" as="sourcePoint" />
            <mxPoint x="460" y="-160" as="targetPoint" />
            <Array as="points">
              <mxPoint x="1100" y="-150" />
            </Array>
            <mxPoint as="offset" />
          </mxGeometry>
        </mxCell>
        <mxCell id="4ip0zOYONYjsPPys63c3-78" value="Notification" style="html=1;whiteSpace=wrap;" vertex="1" parent="1">
          <mxGeometry x="325" y="-180" width="110" height="50" as="geometry" />
        </mxCell>
        <mxCell id="4ip0zOYONYjsPPys63c3-79" value="DIAGRAME DE SEQUENCE DE L&#39;APPLICATION D&#39;APPREMTI" style="text;html=1;align=center;verticalAlign=middle;resizable=0;points=[];autosize=1;strokeColor=none;fillColor=none;" vertex="1" parent="1">
          <mxGeometry x="435" y="-890" width="360" height="30" as="geometry" />
        </mxCell>
      </root>
    </mxGraphModel>
  </diagram>
</mxfile>
